<?xml version="1.0" standalone="no"?>
<!DOCTYPE svg PUBLIC "-//W3C//DTD SVG 20010904//EN"
 "http://www.w3.org/TR/2001/REC-SVG-20010904/DTD/svg10.dtd">
<svg version="1.0" xmlns="http://www.w3.org/2000/svg"
 width="512.000000pt" height="512.000000pt" viewBox="0 0 512.000000 512.000000"
 preserveAspectRatio="xMidYMid meet">

<g transform="translate(0.000000,512.000000) scale(0.100000,-0.100000)"
fill="#000000" stroke="none">
<path d="M4450 5104 c-93 -20 -173 -51 -243 -96 -42 -27 -250 -227 -654 -631
l-592 -590 -98 43 c-54 23 -131 58 -172 77 l-74 33 86 89 c48 49 94 105 102
124 21 51 19 130 -4 175 -28 53 -308 328 -353 347 -21 8 -57 15 -80 15 -80 -1
-122 -30 -318 -226 -102 -101 -189 -184 -194 -184 -4 0 -202 87 -439 192
l-432 193 -90 0 c-129 0 -160 -17 -317 -172 -141 -140 -164 -179 -156 -257 11
-99 -6 -83 734 -628 379 -280 744 -549 812 -599 l124 -91 -344 -347 c-189
-190 -363 -374 -388 -409 l-45 -62 -75 5 c-41 3 -252 12 -468 21 -426 17 -448
16 -546 -33 -60 -30 -137 -102 -170 -157 -30 -51 -56 -138 -56 -187 0 -98 69
-209 159 -253 25 -13 184 -67 353 -121 l307 -98 -39 -71 c-21 -39 -41 -87 -45
-106 -4 -19 -23 -52 -41 -72 -45 -51 -64 -99 -64 -167 1 -132 101 -231 232
-231 61 0 129 28 173 70 17 15 46 31 65 35 19 4 67 24 106 45 l71 39 98 -307
c54 -169 108 -328 121 -353 44 -90 155 -159 253 -159 49 0 136 26 187 56 55
33 127 110 157 170 49 98 50 120 33 546 -9 216 -18 427 -21 468 l-5 75 73 55
c39 30 223 205 408 388 l337 334 91 -124 c50 -67 319 -433 599 -812 545 -740
529 -723 628 -734 78 -8 117 15 257 156 155 157 172 188 172 317 l0 90 -193
432 c-105 237 -192 435 -192 439 0 5 83 92 184 194 196 196 225 238 226 318 0
23 -7 59 -15 80 -19 45 -294 325 -347 353 -45 23 -124 25 -175 4 -19 -8 -75
-54 -124 -102 l-89 -86 -33 74 c-19 41 -54 118 -77 172 l-43 98 198 199 c171
172 198 203 198 229 0 43 -28 71 -72 71 -34 0 -77 -41 -961 -926 -509 -509
-961 -956 -1005 -993 -136 -116 -257 -196 -535 -356 -74 -43 -151 -87 -170
-98 -23 -13 9 25 91 109 139 141 159 175 159 263 -1 132 -100 231 -233 231
-86 0 -121 -21 -261 -159 -71 -69 -125 -119 -120 -110 5 9 69 119 142 245 144
248 218 357 329 486 39 46 665 675 1390 1399 l1318 1317 86 41 c234 112 482
62 576 -116 76 -142 67 -314 -24 -486 -19 -37 -112 -138 -314 -342 -184 -185
-290 -300 -294 -317 -6 -22 -1 -33 23 -58 17 -16 41 -30 53 -30 28 0 556 521
626 618 181 251 174 603 -16 793 -124 124 -326 176 -521 133z m-1918 -701
c114 -114 138 -143 138 -167 0 -23 -19 -48 -97 -127 -53 -55 -101 -99 -106
-99 -10 0 -438 188 -446 195 -3 3 69 80 159 170 125 125 171 165 190 165 19 0
59 -34 162 -137z m-637 -307 c517 -230 942 -420 945 -422 2 -3 -88 -97 -201
-210 l-205 -205 -224 165 c-135 99 -234 166 -248 166 -56 0 -95 -57 -70 -103
7 -14 103 -92 213 -172 110 -81 204 -151 210 -156 11 -11 -104 -131 -121 -125
-6 2 -249 179 -540 393 -1201 884 -1084 794 -1084 828 0 12 23 43 55 75 54 54
55 54 70 33 15 -21 884 -666 944 -700 37 -22 79 -10 100 28 28 50 11 72 -142
184 -78 58 -286 211 -462 340 -176 129 -323 244 -327 254 -12 34 25 52 97 47
40 -2 234 -85 990 -420z m2200 -2198 c401 -902 419 -946 420 -1004 0 -68 -15
-97 -46 -86 -10 4 -287 372 -615 817 l-595 809 203 203 c111 112 205 203 208
203 3 0 194 -424 425 -942z m307 635 c105 -104 138 -144 138 -163 0 -19 -39
-64 -165 -190 -90 -90 -166 -162 -169 -159 -9 9 -196 433 -196 444 0 6 44 55
99 108 78 77 104 97 127 97 24 0 53 -25 166 -137z m-653 -1018 c326 -443 602
-812 614 -820 22 -16 22 -16 -35 -70 -31 -30 -65 -55 -75 -55 -11 0 -31 12
-45 28 -22 24 -1153 1558 -1172 1590 -6 10 10 33 50 73 32 32 61 59 64 59 4 0
273 -362 599 -805z m-2839 454 c162 -7 296 -13 298 -14 3 -2 -302 -532 -311
-541 -8 -9 -679 215 -699 232 -26 24 -48 75 -48 111 0 46 44 127 91 166 65 56
112 68 254 62 66 -3 253 -10 415 -16z m605 -454 c18 -17 25 -35 25 -62 0 -36
-13 -51 -318 -355 -304 -305 -319 -318 -355 -318 -27 0 -45 7 -62 25 -18 17
-25 35 -25 62 0 36 13 51 318 355 304 305 319 318 355 318 27 0 45 -7 62 -25z
m445 -359 c0 -30 7 -215 16 -410 17 -406 15 -426 -53 -505 -39 -47 -120 -91
-166 -91 -36 0 -87 22 -111 48 -18 21 -241 691 -232 699 9 9 531 312 539 312
4 1 7 -23 7 -53z"/>
<path d="M4265 4725 c-32 -31 -33 -75 -2 -102 12 -11 52 -28 88 -37 119 -31
211 -127 239 -249 22 -93 82 -125 135 -72 29 28 30 38 9 118 -45 176 -175 306
-350 351 -81 21 -91 20 -119 -9z"/>
</g>
</svg>
