<?xml version="1.0" standalone="no"?>
<!DOCTYPE svg PUBLIC "-//W3C//DTD SVG 20010904//EN"
 "http://www.w3.org/TR/2001/REC-SVG-20010904/DTD/svg10.dtd">
<svg version="1.0" xmlns="http://www.w3.org/2000/svg"
 width="512.000000pt" height="512.000000pt" viewBox="0 0 512.000000 512.000000"
 preserveAspectRatio="xMidYMid meet">

<g transform="translate(0.000000,512.000000) scale(0.100000,-0.100000)"
fill="#000000" stroke="none">
<path d="M1988 5027 c-48 -18 -143 -77 -415 -259 -123 -81 -227 -148 -233
-148 -6 0 -134 47 -284 105 -150 58 -284 105 -297 105 -34 0 -289 -108 -316
-134 -22 -21 -26 -34 -24 -72 1 -15 58 -72 175 -175 96 -85 175 -157 175 -160
1 -4 -43 -47 -97 -97 l-98 -90 -134 19 c-199 28 -198 28 -289 -36 -80 -56 -99
-84 -86 -126 8 -26 226 -211 286 -243 142 -78 365 -74 504 7 107 63 1563 988
1583 1006 48 43 13 121 -95 206 -89 70 -155 98 -243 102 -48 2 -89 -2 -112
-10z m189 -167 c66 -33 92 -56 77 -69 -5 -5 -346 -221 -758 -482 -533 -336
-764 -477 -800 -486 -74 -20 -179 -12 -247 19 -63 29 -184 127 -172 139 4 4
62 -1 128 -11 66 -11 143 -20 172 -20 59 0 45 -10 248 173 125 113 151 149
136 189 -5 13 -79 85 -165 161 -86 77 -156 142 -156 146 0 14 120 52 142 45
13 -4 144 -53 292 -110 147 -57 274 -104 282 -104 7 0 102 59 211 132 248 164
440 287 467 298 39 16 83 10 143 -20z"/>
<path d="M3565 4991 c-55 -23 -66 -89 -21 -128 22 -18 39 -23 87 -23 l59 0 0
-85 0 -85 -395 0 c-335 0 -401 -2 -433 -15 -75 -32 -122 -102 -122 -182 0 -26
45 -230 99 -453 l98 -405 -211 -5 c-206 -5 -212 -6 -256 -32 -49 -28 -84 -80
-94 -138 -9 -47 204 -928 234 -970 30 -42 67 -69 106 -76 l34 -6 0 -214 0
-214 -1087 -2 -1088 -3 -55 -31 c-39 -22 -122 -101 -287 -272 l-233 -240 0
-490 c0 -453 1 -495 19 -551 37 -121 110 -204 227 -258 l59 -28 2130 -3 c2352
-3 2175 -7 2244 60 18 18 42 50 54 72 21 40 22 54 25 406 2 201 0 375 -3 388
-13 52 -77 79 -116 49 -37 -28 -39 -48 -39 -415 0 -339 -1 -361 -19 -383 -19
-23 -24 -24 -200 -27 l-181 -3 0 314 0 315 -28 53 c-20 39 -41 62 -77 84 l-48
30 -286 3 c-244 2 -292 1 -328 -13 -55 -21 -117 -92 -132 -150 -7 -27 -11
-155 -11 -339 l0 -296 -195 0 -195 0 0 1075 0 1075 850 0 850 0 0 -520 c0
-446 2 -525 15 -550 27 -52 106 -52 132 0 10 19 13 149 13 551 l0 527 25 6
c33 8 100 69 114 104 6 15 58 223 117 462 116 478 118 492 68 563 -53 74 -80
82 -316 86 -115 1 -208 7 -208 11 0 4 45 194 100 421 55 228 100 421 100 429
0 66 -54 146 -121 181 -36 18 -62 19 -419 19 l-380 0 0 84 0 84 64 4 c80 5
106 24 106 78 0 25 -7 43 -21 56 -19 17 -40 19 -213 21 -105 1 -200 -2 -211
-6z m1016 -481 c11 -7 19 -21 19 -37 0 -15 -45 -213 -100 -439 -55 -227 -100
-415 -100 -419 0 -3 -294 -4 -652 -3 l-653 3 -104 432 c-103 423 -104 433 -86
453 18 20 25 20 837 20 546 0 826 -3 839 -10z m376 -1077 c7 -18 6 -25 -66
-333 -102 -433 -120 -504 -139 -530 l-19 -25 -990 -3 c-785 -2 -993 1 -1001
10 -11 14 -212 833 -212 866 0 11 6 23 13 25 6 3 551 6 1210 6 1105 1 1198 0
1204 -16z m-2207 -1803 l0 -170 -1247 0 -1248 0 171 170 170 170 1077 0 1077
0 0 -170z m-2 -862 l2 -538 -120 0 -120 0 0 298 c0 350 -4 376 -74 440 -24 22
-61 46 -83 52 -25 8 -130 10 -319 8 l-281 -3 -48 -30 c-36 -22 -57 -45 -77
-84 l-28 -53 0 -314 0 -314 -613 0 c-680 0 -667 -1 -745 66 -22 19 -51 55 -64
82 -23 47 -23 49 -26 476 -2 236 -1 435 2 443 5 11 218 13 1298 11 l1293 -3 3
-537z m-412 88 c11 -16 14 -77 14 -323 l0 -303 -300 0 -301 0 3 306 3 306 24
19 c23 19 39 20 283 17 244 -3 261 -4 274 -22z m1689 -1 l25 -24 0 -301 0
-300 -300 0 -300 0 0 303 c0 166 4 307 8 313 20 30 52 33 295 34 l248 0 24
-25z"/>
<path d="M3475 4115 c-37 -36 -34 -86 7 -120 35 -30 79 -29 110 3 32 31 33 75
3 110 -34 41 -84 44 -120 7z"/>
<path d="M3902 4133 c-16 -6 -42 -56 -42 -82 0 -11 11 -32 24 -47 49 -58 146
-20 146 57 0 57 -69 96 -128 72z"/>
<path d="M3043 3236 l-28 -24 0 -217 0 -217 28 -24 29 -24 698 2 c670 3 699 4
719 22 20 18 21 28 21 241 0 213 -1 223 -21 241 -20 18 -49 19 -719 22 l-698
2 -29 -24z m1317 -241 l0 -105 -595 0 -595 0 0 105 0 105 595 0 595 0 0 -105z"/>
<path d="M446 1009 c-34 -27 -36 -77 -3 -107 23 -22 26 -22 430 -22 394 0 408
1 427 20 27 27 27 83 -2 110 -21 19 -33 20 -424 20 -391 0 -402 -1 -428 -21z"/>
<path d="M1481 3683 c-32 -13 -787 -495 -798 -511 -42 -54 24 -138 88 -113 31
12 757 473 786 499 39 35 27 93 -24 120 -23 13 -30 13 -52 5z"/>
<path d="M611 2680 c-95 -59 -177 -114 -182 -121 -29 -47 8 -119 61 -119 16 0
97 44 208 112 143 88 184 118 191 140 19 54 -16 99 -76 97 -17 0 -94 -41 -202
-109z"/>
<path d="M3323 2195 c-40 -28 -37 -89 6 -122 12 -9 118 -12 419 -13 l403 0 24
25 c32 31 33 74 2 103 -23 22 -26 22 -428 22 -341 0 -408 -2 -426 -15z"/>
</g>
</svg>
